<?xml version="1.0" standalone="no"?><!DOCTYPE svg PUBLIC "-//W3C//DTD SVG 1.1//EN" "http://www.w3.org/Graphics/SVG/1.1/DTD/svg11.dtd"><svg t="1542677159078" class="icon" style="" viewBox="0 0 1025 1024" version="1.1" xmlns="http://www.w3.org/2000/svg" p-id="6878" xmlns:xlink="http://www.w3.org/1999/xlink" width="200.1953125" height="200"><defs><style type="text/css"></style></defs><path d="M999.322 295.584v509.929c0 40.334-32.879 73.091-73.092 73.091H73.091c-40.213 0-73.092-32.757-73.092-73.091V295.584c0-40.334 32.879-73.091 73.092-73.091H926.231c40.212 0 73.091 32.757 73.091 73.091z m-42.779 509.929v-54.024l-84.459 84.336h54.146c16.623-0.001 30.313-13.567 30.313-30.312z m0-114.527V295.584c0-16.745-13.689-30.312-30.313-30.312H674.933v570.552h136.648l144.962-144.838zM632.154 835.824V265.272H367.167v570.552h264.987z m-307.766 0V265.272H73.091c-16.623 0-30.313 13.567-30.313 30.312v396.502l143.738 143.738H324.388z m-251.297 0h52.924L42.778 752.589v52.924c0 16.745 13.689 30.311 30.313 30.311z" fill="#97C5EA" p-id="6879"></path><path d="M956.543 751.488v54.024c0 16.745-13.689 30.312-30.313 30.312h-54.146l84.459-84.336zM903.985 369.042c8.556 8.067 9.045 21.634 0.978 30.19l-30.434 32.634c-4.278 4.522-9.9 6.845-15.646 6.845-5.256 0-10.512-1.956-14.667-5.867l-72.113-67.347c-8.556-8.067-9.045-21.634-0.979-30.19l30.557-32.634c3.789-4.156 9.167-6.601 14.912-6.845 5.744-0.123 11.122 1.956 15.278 5.745l72.114 67.469zM786.403 591.494c35.079 0 63.681 28.479 63.681 63.68 0 35.079-28.602 63.68-63.681 63.68-35.201 0-63.68-28.601-63.68-63.68 0-35.201 28.479-63.68 63.68-63.68z m20.901 63.68c0-11.611-9.412-20.9-20.901-20.9a20.813 20.813 0 0 0-20.9 20.9c0 11.489 9.289 20.9 20.9 20.9 11.489 0 20.901-9.411 20.901-20.9z" fill="#97C5EA" p-id="6880"></path><path d="M816.593 295.829c-5.745 0.244-11.123 2.689-14.912 6.845l-30.557 32.634c-8.066 8.556-7.577 22.123 0.979 30.19l72.113 67.347c4.155 3.911 9.411 5.867 14.667 5.867 5.745 0 11.367-2.322 15.646-6.845l30.434-32.634c8.067-8.556 7.578-22.123-0.978-30.19l-72.113-67.469c-4.156-3.79-9.534-5.868-15.279-5.745z m-141.66-30.557h251.297c16.623 0 30.313 13.567 30.313 30.312v395.402L811.582 835.824H674.933V265.272z m175.151 389.902c0-35.201-28.602-63.68-63.681-63.68-35.201 0-63.68 28.479-63.68 63.68 0 35.079 28.479 63.68 63.68 63.68 35.079 0 63.681-28.601 63.681-63.68zM783.47 904.76c23.589 0 42.778 19.19 42.778 42.779 0 23.59-19.189 42.657-42.778 42.657-23.59 0-42.779-19.067-42.779-42.657 0-23.589 19.19-42.779 42.779-42.779z" fill="#97C5EA" p-id="6881"></path><path d="M786.403 634.273c11.489 0 20.901 9.289 20.901 20.9 0 11.489-9.412 20.9-20.901 20.9-11.611 0-20.9-9.411-20.9-20.9 0-11.61 9.289-20.9 20.9-20.9zM367.167 265.272h264.987v570.552H367.167zM612.842 139.501v47.057c0 11.734-9.655 21.39-21.39 21.39-11.855 0-21.389-9.656-21.389-21.39v-25.667H428.28v25.667c0 11.734-9.656 21.39-21.39 21.39-11.856 0-21.39-9.656-21.39-21.39v-47.057c0-11.734 9.534-21.39 21.39-21.39h184.562c11.734 0 21.39 9.656 21.39 21.39zM598.542 57.976c11.855 0 21.39 9.656 21.39 21.39a21.336 21.336 0 0 1-21.39 21.39H399.679c-11.734 0-21.39-9.534-21.39-21.39 0-11.734 9.656-21.39 21.39-21.39h198.863zM324.388 265.272v570.552H186.516L42.778 692.086V295.584c0-16.745 13.689-30.312 30.313-30.312H324.388z m-94.848 306.177c8.8-7.945 9.534-21.39 1.711-30.19l-29.823-33.368c-7.822-8.8-21.39-9.534-30.19-1.711l-73.58 65.88c-4.156 3.667-6.723 9.045-7.089 14.668-0.367 5.744 1.589 11.244 5.378 15.522l29.823 33.245c4.156 4.768 10.022 7.09 15.89 7.09 5.133 0 10.145-1.712 14.3-5.378l73.58-65.758zM215.851 904.76c23.59 0 42.657 19.19 42.657 42.779 0 23.59-19.067 42.657-42.657 42.657s-42.779-19.067-42.779-42.657c-0.001-23.589 19.189-42.779 42.779-42.779z" fill="#97C5EA" p-id="6882"></path><path d="M125.77 635.495L95.946 602.25c-3.789-4.278-5.745-9.778-5.378-15.522 0.367-5.623 2.934-11.001 7.089-14.668L171.238 506.18c8.8-7.823 22.368-7.089 30.19 1.711l29.823 33.368c7.823 8.801 7.089 22.245-1.711 30.19l-73.581 65.758c-4.156 3.666-9.167 5.378-14.3 5.378-5.867 0-11.733-2.322-15.889-7.09zM126.014 835.824H73.091c-16.623 0-30.313-13.566-30.313-30.312v-52.924l83.236 83.236z" fill="#97C5EA" p-id="6883"></path><path d="M1023.767 271.139v509.929c0 40.334-32.879 73.091-73.092 73.091H97.535c-40.212 0-73.091-32.757-73.091-73.091V271.139c0-40.334 32.879-73.091 73.091-73.091H950.675c40.213-0.001 73.092 32.756 73.092 73.091zM980.988 781.067v-54.024l-84.459 84.336h54.146c16.624 0 30.313-13.566 30.313-30.312z m0-114.526V271.139c0-16.745-13.689-30.312-30.313-30.312H699.379v570.552h136.648L980.988 666.541zM656.599 811.379V240.827H391.612v570.552h264.987z m-307.766 0V240.827H97.535c-16.623 0-30.312 13.567-30.312 30.312v396.502l143.738 143.738h137.872z m-251.298 0h52.924l-83.236-83.235v52.924c0 16.745 13.69 30.311 30.312 30.311z" fill="#024687" p-id="6884"></path><path d="M980.988 727.043v54.024c0 16.745-13.689 30.312-30.313 30.312h-54.146l84.459-84.336z" fill="#FFFFFF" p-id="6885"></path><path d="M928.43 344.597c8.556 8.067 9.045 21.634 0.978 30.19l-30.434 32.634c-4.278 4.522-9.9 6.845-15.646 6.845-5.256 0-10.512-1.956-14.667-5.867l-72.113-67.347c-8.557-8.067-9.045-21.634-0.979-30.19l30.557-32.634c3.789-4.156 9.167-6.601 14.912-6.845 5.744-0.123 11.122 1.956 15.278 5.745l72.114 67.469zM810.848 567.049c35.079 0 63.681 28.479 63.681 63.68 0 35.079-28.602 63.68-63.681 63.68-35.201 0-63.68-28.601-63.68-63.68 0.001-35.202 28.479-63.68 63.68-63.68z m20.902 63.68c0-11.611-9.412-20.9-20.901-20.9a20.813 20.813 0 0 0-20.9 20.9c0 11.489 9.289 20.901 20.9 20.901 11.489 0 20.901-9.412 20.901-20.901z" fill="#024687" p-id="6886"></path><path d="M699.379 240.827h251.297c16.623 0 30.313 13.567 30.313 30.312v395.402L836.027 811.379H699.379V240.827z m156.938 36.301c-4.156-3.789-9.534-5.867-15.278-5.745-5.745 0.244-11.123 2.689-14.912 6.845l-30.557 32.634c-8.066 8.556-7.578 22.123 0.979 30.19l72.113 67.347c4.155 3.911 9.411 5.867 14.667 5.867 5.745 0 11.367-2.322 15.646-6.845l30.434-32.634c8.067-8.556 7.578-22.123-0.978-30.19l-72.114-67.469z m18.212 353.601c0-35.201-28.602-63.68-63.681-63.68-35.201 0-63.68 28.479-63.68 63.68 0 35.079 28.479 63.68 63.68 63.68 35.079-0.001 63.681-28.601 63.681-63.68z" fill="#FFFFFF" p-id="6887"></path><path d="M807.916 880.315c23.589 0 42.778 19.189 42.778 42.778 0 23.59-19.189 42.657-42.778 42.657-23.59 0-42.779-19.067-42.779-42.657-0.001-23.588 19.189-42.778 42.779-42.778z" fill="#024687" p-id="6888"></path><path d="M810.848 609.828c11.489 0 20.901 9.289 20.901 20.9 0 11.489-9.412 20.901-20.901 20.901-11.611 0-20.9-9.412-20.9-20.901 0-11.611 9.289-20.9 20.9-20.9zM391.612 240.827h264.987v570.552H391.612z" fill="#FFFFFF" p-id="6889"></path><path d="M637.287 115.056v47.057c0 11.734-9.655 21.39-21.39 21.39-11.855 0-21.39-9.656-21.39-21.39v-25.667H452.725v25.667c0 11.734-9.656 21.39-21.39 21.39-11.856 0-21.39-9.656-21.39-21.39v-47.057c0-11.734 9.534-21.39 21.39-21.39h184.562c11.735 0 21.39 9.656 21.39 21.39zM622.987 33.531c11.855 0 21.39 9.656 21.39 21.39a21.336 21.336 0 0 1-21.39 21.39H424.124c-11.733 0-21.389-9.534-21.389-21.39 0-11.734 9.656-21.39 21.389-21.39h198.863z" fill="#024687" p-id="6890"></path><path d="M348.833 240.827v570.552H210.962L67.223 667.641V271.139c0-16.745 13.689-30.312 30.312-30.312h251.298z m-94.847 306.177c8.8-7.945 9.533-21.39 1.711-30.19l-29.823-33.368c-7.822-8.8-21.39-9.534-30.19-1.711l-73.58 65.88c-4.156 3.666-6.723 9.044-7.089 14.667-0.367 5.744 1.589 11.244 5.378 15.522l29.823 33.245c4.156 4.768 10.022 7.09 15.89 7.09 5.133 0 10.145-1.712 14.3-5.378l73.58-65.757z" fill="#FFFFFF" p-id="6891"></path><path d="M240.296 880.315c23.589 0 42.657 19.189 42.657 42.778 0 23.59-19.067 42.657-42.657 42.657-23.59 0-42.779-19.067-42.779-42.657 0-23.588 19.189-42.778 42.779-42.778zM150.215 611.05l-29.823-33.245c-3.789-4.278-5.745-9.778-5.378-15.522 0.367-5.623 2.934-11.001 7.089-14.667l73.58-65.88c8.8-7.823 22.368-7.089 30.19 1.711l29.823 33.368c7.822 8.801 7.089 22.245-1.711 30.19l-73.581 65.758c-4.156 3.666-9.167 5.378-14.3 5.378-5.866-0.001-11.733-2.324-15.889-7.091z" fill="#024687" p-id="6892"></path><path d="M150.46 811.379H97.535c-16.623 0-30.312-13.566-30.312-30.312v-52.924l83.237 83.236z" fill="#FFFFFF" p-id="6893"></path></svg>