<?xml version="1.0" standalone="no"?><!DOCTYPE svg PUBLIC "-//W3C//DTD SVG 1.1//EN" "http://www.w3.org/Graphics/SVG/1.1/DTD/svg11.dtd"><svg t="1542677170075" class="icon" style="" viewBox="0 0 1024 1024" version="1.1" xmlns="http://www.w3.org/2000/svg" p-id="7312" xmlns:xlink="http://www.w3.org/1999/xlink" width="200" height="200"><defs><style type="text/css"></style></defs><path d="M861.4 557.8l-0.2 18.3c-0.1 11.1-9.1 20-20.3 20h-0.1c-10.5-0.1-19-8-20-18.2h-29.6c-20.4 85.5-75.8 157.5-150.2 199.8l126.9 213.5c5.8 9.6 2.5 22-7.1 27.8-3.2 1.9-6.8 2.8-10.3 2.8-6.9 0-13.7-3.5-17.5-9.8L604.4 795.6c-36.5 14.8-76.1 23-117.8 23-41.5 0-81.2-8.2-117.6-23L240.3 1012c-3.7 6.4-10.4 9.8-17.4 9.8-3.6 0-7.1-0.9-10.3-2.8-9.7-5.8-12.8-18.2-7.1-27.8l126.9-213.4c-74.6-42.4-130.1-114.4-150.4-200h-28.4c-1 10.2-9.6 18.1-20 18.2h-0.1c-11.1 0-20.1-8.9-20.3-20l-0.2-18.2c0-5.4 2.1-10.6 5.9-14.5 3.8-3.9 9-6 14.3-6H175c-1-10.5-1.6-21.1-1.6-31.8 0-1.3 0.1-2.3 0.1-3.5v-1.7c0.2-11.1 9.3-20 20.3-20h585.5c11 0 20 8.9 20.3 19.9l0.1 5.3c0 10.8-0.6 21.3-1.6 31.8h43c5.4 0 10.5 2.1 14.3 6 4 3.9 6 9.1 6 14.5z m-102.6-37H214.5c8 143.3 126.9 257.2 272.2 257.2 145 0.1 264.1-113.9 272.1-257.2zM815 404.9c11.1 0 20.3 9.1 20.3 20.3 0 11.2-9.1 20.3-20.3 20.3H158.2c-11.1 0-20.3-9-20.3-20.3 0-11.1 9.1-20.3 20.3-20.3H815zM689 211c17 20.1 20.8 45.6 10.1 67.9-12.6 26.3-42.7 43.6-75.4 43.6h-2.2c-11.1-0.3-20-9.6-19.8-20.8 0.3-11.1 9.8-20 20.8-19.7 20.3 0.5 35.2-10.4 40-20.7 3.9-8 2.4-16.2-4.4-24.3-5.3-6.4-13.5-10.9-22.2-15.7-15.5-8.8-34.8-19.6-43.4-44.3-3.6-10.6 2-22.1 12.5-25.8 10.6-3.7 22.1 2 25.8 12.5 3.4 9.7 11.2 14.6 24.9 22.2 11 6.1 23.2 13 33.3 25.1z" fill="#96C4E9" p-id="7313"></path><path d="M684.3 552.3c11 2.4 17.8 13.2 15.4 24.1-35.1 157.1-201.8 164.9-203.5 165h-0.7c-10.9 0-19.9-8.6-20.3-19.6-0.3-11.1 8.3-20.5 19.4-20.9 5.7-0.2 137.4-7.1 165.5-133.3 2.4-10.9 13.3-17.8 24.2-15.3zM673.6 88.5c11.1 0.5 19.8 10 19.3 21.1-0.5 11.2-10.1 19.7-21.1 19.4-11.7-0.6-16.9 0.3-23.6 3.8-3 1.6-6.2 2.3-9.4 2.3-7.3 0-14.3-3.9-17.9-10.9-5.2-9.8-1.4-22.1 8.4-27.3 15.3-7.9 28.8-9.1 44.3-8.4z" fill="#96C4E9" p-id="7314"></path><path d="M684.3 552.3c-10.9-2.5-21.8 4.4-24.2 15.3C632 693.8 500.3 700.7 494.6 700.9c-11.1 0.5-19.8 9.8-19.4 20.9 0.3 11 9.4 19.6 20.3 19.6h0.7c1.7-0.1 168.5-7.9 203.5-165 2.4-10.9-4.4-21.6-15.4-24.1z m-469.8-31.5h544.3C750.8 664.1 631.7 778 486.6 778c-145.2 0.1-264.2-113.9-272.1-257.2zM498.1 159.8c24.6 12 66.1 49.1 47.2 102.9-19.7 55.9-80.3 59.8-96.9 59.8-2.2 0-3.7-0.1-4.1-0.1-11.2-0.6-19.7-10.2-19.1-21.4 0.7-11.1 10.1-19.7 21.4-19 2 0 48.1 2 60.4-32.7 11.5-32.6-23-51.1-27-53.1l-19.3-9.5C436.1 174 395 136.5 413.5 83.8c18.3-52 74.2-61.8 101.3-59.7 11.1 0.8 19.4 10.5 18.6 21.8-0.8 11.1-10.6 19.3-21.6 18.6-2-0.1-47.6-2.8-60.1 32.7-11.2 31.8 23.3 51.1 27.3 53.3l19.1 9.3zM324.3 190.8c19.9 9.8 53.2 39.8 38 83.4-13.4 38.3-52.1 48.3-76 48.3-1.7 0-3.2 0-4.7-0.1-11.1-0.6-19.7-10.2-19-21.4 0.6-11.1 10.3-19.7 21.4-19 1.2 0 32.3 1.2 40.2-21.2 6.9-19.9-13.5-31.6-17.7-33.7L292 220c-19.9-10.3-53-40.6-38-83.4 14.7-41.8 57.9-49.9 81.1-48.1 11.1 0.9 19.4 10.6 18.6 21.8S343 129.7 332 128.9c-1.6-0.1-31.9-1.5-39.9 21.2-7.2 20.6 16.9 33.3 17.9 33.8l14.3 6.9z" fill="#96C4E9" p-id="7315"></path><path d="M907.7 534.6l-0.2 18.3c-0.1 11.1-9.1 20-20.3 20h-0.1c-10.5-0.1-19-8-20-18.2h-29.6c-20.4 85.5-75.8 157.5-150.2 199.8L814.2 968c5.8 9.6 2.5 22-7.1 27.8-3.2 1.9-6.8 2.8-10.3 2.8-6.9 0-13.7-3.5-17.5-9.8L650.7 772.4c-36.5 14.8-76.1 23-117.8 23-41.5 0-81.2-8.2-117.6-23L286.5 988.8c-3.7 6.4-10.4 9.8-17.4 9.8-3.6 0-7.1-0.9-10.3-2.8-9.7-5.8-12.8-18.2-7.1-27.8l126.9-213.4c-74.6-42.4-130.1-114.4-150.4-200H200c-1 10.2-9.6 18.1-20 18.2h-0.1c-11.1 0-20.1-8.9-20.3-20l-0.2-18.2c0-5.4 2.1-10.6 5.9-14.5 3.8-3.9 9-6 14.3-6h41.8c-1-10.5-1.6-21.1-1.6-31.8 0-1.3 0.1-2.3 0.1-3.5v-1.7c0.2-11.1 9.3-20 20.3-20h585.5c11 0 20 8.9 20.3 19.9l0.1 5.3c0 10.8-0.6 21.3-1.6 31.8h43c5.4 0 10.5 2.1 14.3 6 3.8 4 5.9 9.2 5.9 14.5z m-102.6-36.9H260.7c8 143.3 126.9 257.2 272.2 257.2 145.1 0 264.2-113.9 272.2-257.2zM861.3 381.8c11.1 0 20.3 9.1 20.3 20.3 0 11.2-9.1 20.3-20.3 20.3H204.5c-11.1 0-20.3-9-20.3-20.3 0-11.1 9.1-20.3 20.3-20.3h656.8zM735.3 187.8c17 20.1 20.8 45.6 10.1 67.9-12.6 26.3-42.7 43.6-75.4 43.6h-2.2c-11.1-0.3-20-9.6-19.8-20.8 0.3-11.1 9.8-20 20.8-19.7 20.3 0.5 35.2-10.4 40-20.7 3.9-8 2.4-16.2-4.4-24.3-5.3-6.4-13.5-10.9-22.2-15.7-15.5-8.8-34.8-19.6-43.4-44.3-3.6-10.6 2-22.1 12.5-25.8 10.6-3.7 22.1 2 25.8 12.5 3.4 9.7 11.2 14.6 24.9 22.2 11 6.1 23.2 13.1 33.3 25.1z" fill="#024686" p-id="7316"></path><path d="M730.6 529.2c11 2.4 17.8 13.2 15.4 24.1-35.1 157.1-201.8 164.9-203.5 165h-0.7c-10.9 0-19.9-8.6-20.3-19.6-0.3-11.1 8.3-20.5 19.4-20.9 5.7-0.2 137.4-7.1 165.5-133.3 2.4-10.9 13.3-17.9 24.2-15.3zM719.9 65.4c11.1 0.5 19.8 10 19.3 21.1-0.5 11.2-10.1 19.7-21.1 19.4-11.7-0.6-16.9 0.3-23.6 3.8-3 1.6-6.2 2.3-9.4 2.3-7.3 0-14.3-3.9-17.9-10.9-5.2-9.8-1.4-22.1 8.4-27.3 15.3-8 28.8-9.1 44.3-8.4z" fill="#024686" p-id="7317"></path><path d="M730.6 529.2c-10.9-2.5-21.8 4.4-24.2 15.3-28.1 126.2-159.8 133.1-165.5 133.3-11.1 0.5-19.8 9.8-19.4 20.9 0.3 11 9.4 19.6 20.3 19.6h0.7c1.7-0.1 168.5-7.9 203.5-165 2.4-10.9-4.4-21.7-15.4-24.1z m-469.9-31.5H805C797.1 641 678 754.9 532.9 754.9c-145.2 0-264.2-113.9-272.2-257.2z" fill="#FFFFFF" p-id="7318"></path><path d="M544.4 136.7c24.6 12 66.1 49.1 47.2 102.9-19.7 55.9-80.3 59.8-96.9 59.8-2.2 0-3.7-0.1-4-0.1-11.2-0.6-19.7-10.2-19.1-21.4 0.7-11.1 10.1-19.7 21.4-19 2 0 48.1 2 60.4-32.7 11.5-32.6-23-51.1-27-53.1l-19.3-9.5c-24.6-12.7-65.7-50.2-47.2-102.9C478.2 8.7 534.1-1.1 561.2 1c11.1 0.8 19.4 10.5 18.6 21.8-0.8 11-10.7 19.2-21.7 18.5-2-0.1-47.6-2.8-60.1 32.7-11.2 31.8 23.3 51.1 27.3 53.3l19.1 9.4zM370.6 167.7c19.9 9.8 53.2 39.8 38 83.4-13.4 38.3-52.1 48.3-76 48.3-1.7 0-3.2 0-4.7-0.1-11.1-0.6-19.7-10.2-19-21.4 0.6-11.1 10.3-19.7 21.4-19 1.2 0 32.3 1.2 40.2-21.2 6.9-19.9-13.5-31.6-17.7-33.7l-14.5-7.1c-19.9-10.3-53-40.6-38-83.4 14.7-41.8 57.9-49.9 81.1-48.1 11.1 0.9 19.4 10.6 18.6 21.8s-10.6 19.4-21.6 18.6c-1.6-0.1-31.9-1.5-39.9 21.2-7.2 20.6 16.9 33.3 17.9 33.8l14.2 6.9z" fill="#024686" p-id="7319"></path></svg>