<?xml version="1.0" standalone="no"?><!DOCTYPE svg PUBLIC "-//W3C//DTD SVG 1.1//EN" "http://www.w3.org/Graphics/SVG/1.1/DTD/svg11.dtd"><svg t="1542677162928" class="icon" style="" viewBox="0 0 1024 1024" version="1.1" xmlns="http://www.w3.org/2000/svg" p-id="7022" xmlns:xlink="http://www.w3.org/1999/xlink" width="200" height="200"><defs><style type="text/css"></style></defs><path d="M983.139 368.337v398.651c0 51.286-39.402 92.939-88.062 92.939H91.396c-48.534 0-88.061-41.653-88.061-92.939V368.337c0-51.285 39.527-92.939 88.061-92.939h19.388l17.262-37.901c6.504-14.26 20.639-23.391 36.275-23.391h140.722c15.261 0 28.895 8.381 35.775 22.015l19.514 39.277h534.745c48.659 0 88.062 41.654 88.062 92.939z m-45.532 398.651V368.337c0-26.143-19.014-47.408-42.53-47.408H332.063l-30.521-61.292H168.074L140.18 320.93H91.396c-23.392 0-42.405 21.265-42.405 47.408v398.651c0 26.144 19.013 47.408 42.405 47.408h803.681c23.517-0.001 42.53-21.265 42.53-47.409z" fill="#97C5EA" p-id="7023"></path><path d="M937.607 368.337v398.651c0 26.144-19.014 47.408-42.53 47.408H91.396c-23.392 0-42.405-21.265-42.405-47.408V368.337c0-26.143 19.013-47.408 42.405-47.408h48.784l27.894-61.292h133.467l30.521 61.292h563.014c23.518 0.001 42.531 21.265 42.531 47.408z m-65.545 204.142c0-117.581-95.691-213.272-213.397-213.272-117.582 0-213.273 95.691-213.273 213.272 0 117.707 95.691 213.398 213.273 213.398 117.705 0 213.397-95.691 213.397-213.398zM350.576 419.123c0-39.652-32.272-71.925-71.925-71.925h-81.306c-39.778 0-71.925 32.272-71.925 71.925s32.147 71.925 71.925 71.925h81.306c39.652-0.001 71.925-32.273 71.925-71.925z" fill="#97C5EA" p-id="7024"></path><path d="M658.664 359.206c117.706 0 213.397 95.691 213.397 213.272 0 117.707-95.691 213.398-213.397 213.398-117.582 0-213.273-95.691-213.273-213.398 0-117.581 95.691-213.272 213.273-213.272z m167.741 213.273c0-92.438-75.178-167.741-167.741-167.741-92.439 0-167.741 75.302-167.741 167.741 0 92.564 75.302 167.866 167.741 167.866 92.564 0 167.741-75.302 167.741-167.866z" fill="#97C5EA" p-id="7025"></path><path d="M658.664 404.738c92.563 0 167.741 75.302 167.741 167.741 0 92.564-75.178 167.866-167.741 167.866-92.439 0-167.741-75.302-167.741-167.866 0-92.439 75.302-167.741 167.741-167.741z m68.798 167.741c0-37.9-30.771-68.672-68.798-68.672-37.901 0-68.673 30.772-68.673 68.672 0 38.026 30.771 68.798 68.673 68.798 38.026-0.001 68.798-30.772 68.798-68.798z" fill="#97C5EA" p-id="7026"></path><path d="M658.664 503.806c38.026 0 68.798 30.772 68.798 68.672 0 38.026-30.771 68.798-68.798 68.798-37.901 0-68.673-30.771-68.673-68.798 0-37.9 30.772-68.672 68.673-68.672zM278.651 347.198c39.652 0 71.925 32.272 71.925 71.925s-32.272 71.925-71.925 71.925h-81.306c-39.778 0-71.925-32.272-71.925-71.925 0-39.652 32.147-71.925 71.925-71.925h81.306z m26.393 71.925c0-14.51-11.758-26.393-26.393-26.393h-81.306c-14.635 0-26.394 11.883-26.394 26.393 0 14.51 11.758 26.394 26.394 26.394h81.306c14.635-0.001 26.393-11.884 26.393-26.394z" fill="#97C5EA" p-id="7027"></path><path d="M278.651 392.729c14.635 0 26.393 11.883 26.393 26.393 0 14.51-11.758 26.394-26.393 26.394h-81.306c-14.635 0-26.394-11.883-26.394-26.394 0-14.51 11.758-26.393 26.394-26.393h81.306z" fill="#97C5EA" p-id="7028"></path><path d="M1020.664 318.303v398.651c0 51.285-39.402 92.939-88.061 92.939H128.922c-48.534 0-88.061-41.654-88.061-92.939V318.303c0-51.286 39.527-92.939 88.061-92.939h19.388l17.262-37.901c6.504-14.26 20.639-23.391 36.275-23.391H342.57c15.26 0 28.895 8.381 35.774 22.015l19.514 39.277h534.745c48.659 0 88.061 41.654 88.061 92.939z m-45.531 398.651V318.303c0-26.144-19.013-47.408-42.529-47.408H369.589l-30.521-61.292H205.6l-27.894 61.292h-48.784c-23.391 0-42.404 21.265-42.404 47.408v398.651c0 26.143 19.013 47.407 42.404 47.407h803.681c23.517 0 42.53-21.264 42.53-47.407z" fill="#024687" p-id="7029"></path><path d="M975.133 318.303v398.651c0 26.143-19.013 47.407-42.529 47.407H128.922c-23.391 0-42.404-21.265-42.404-47.407V318.303c0-26.144 19.013-47.408 42.404-47.408h48.784l27.894-61.292h133.468l30.521 61.292h563.015c23.516 0 42.529 21.265 42.529 47.408z m-65.545 204.141c0-117.582-95.691-213.272-213.398-213.272-117.581 0-213.272 95.691-213.272 213.272 0 117.706 95.691 213.397 213.272 213.397 117.706 0.001 213.398-95.691 213.398-213.397zM388.102 369.088c0-39.652-32.272-71.924-71.925-71.924h-81.306c-39.777 0-71.925 32.272-71.925 71.924 0 39.653 32.147 71.925 71.925 71.925h81.306c39.652 0 71.925-32.272 71.925-71.925z" fill="#FFFFFF" p-id="7030"></path><path d="M696.189 309.172c117.707 0 213.398 95.691 213.398 213.272 0 117.706-95.691 213.397-213.398 213.397-117.581 0-213.272-95.691-213.272-213.397 0-117.581 95.691-213.272 213.272-213.272z m167.742 213.272c0-92.439-75.177-167.741-167.741-167.741-92.438 0-167.74 75.302-167.74 167.741 0 92.564 75.302 167.866 167.74 167.866 92.564 0.001 167.741-75.301 167.741-167.866z" fill="#024687" p-id="7031"></path><path d="M696.189 354.703c92.564 0 167.741 75.302 167.741 167.741 0 92.564-75.177 167.866-167.741 167.866-92.438 0-167.74-75.302-167.74-167.866 0-92.439 75.302-167.741 167.74-167.741z m68.798 167.741c0-37.901-30.771-68.672-68.798-68.672-37.9 0-68.672 30.771-68.672 68.672 0 38.026 30.771 68.798 68.672 68.798 38.027 0 68.798-30.771 68.798-68.798z" fill="#FFFFFF" p-id="7032"></path><path d="M696.189 453.772c38.026 0 68.798 30.771 68.798 68.672 0 38.026-30.771 68.798-68.798 68.798-37.9 0-68.672-30.771-68.672-68.798 0.001-37.901 30.772-68.672 68.672-68.672zM316.177 297.164c39.652 0 71.925 32.272 71.925 71.924 0 39.653-32.272 71.925-71.925 71.925h-81.306c-39.777 0-71.925-32.272-71.925-71.925 0-39.652 32.147-71.924 71.925-71.924h81.306z m26.393 71.924c0-14.51-11.758-26.393-26.394-26.393H234.87c-14.635 0-26.393 11.883-26.393 26.393 0 14.51 11.758 26.394 26.393 26.394h81.306c14.636-0.001 26.394-11.884 26.394-26.394z" fill="#024687" p-id="7033"></path><path d="M316.177 342.695c14.635 0 26.394 11.883 26.394 26.393 0 14.51-11.758 26.394-26.394 26.394h-81.306c-14.635 0-26.393-11.883-26.393-26.394 0-14.51 11.758-26.393 26.393-26.393h81.306z" fill="#FFFFFF" p-id="7034"></path><path d="M1020.664 318.303v398.651c0 51.285-39.402 92.939-88.061 92.939H128.922c-48.534 0-88.061-41.654-88.061-92.939V318.303c0-51.286 39.527-92.939 88.061-92.939h19.388l17.262-37.901c6.504-14.26 20.639-23.391 36.275-23.391H342.57c15.26 0 28.895 8.381 35.774 22.015l19.514 39.277h534.745c48.659 0 88.061 41.654 88.061 92.939z m-45.531 398.651V318.303c0-26.144-19.013-47.408-42.529-47.408H369.589l-30.521-61.292H205.6l-27.894 61.292h-48.784c-23.391 0-42.404 21.265-42.404 47.408v398.651c0 26.143 19.013 47.407 42.404 47.407h803.681c23.517 0 42.53-21.264 42.53-47.407z" fill="#024687" p-id="7035"></path><path d="M975.133 318.303v398.651c0 26.143-19.013 47.407-42.529 47.407H128.922c-23.391 0-42.404-21.265-42.404-47.407V318.303c0-26.144 19.013-47.408 42.404-47.408h48.784l27.894-61.292h133.468l30.521 61.292h563.015c23.516 0 42.529 21.265 42.529 47.408z m-65.545 204.141c0-117.582-95.691-213.272-213.398-213.272-117.581 0-213.272 95.691-213.272 213.272 0 117.706 95.691 213.397 213.272 213.397 117.706 0.001 213.398-95.691 213.398-213.397zM388.102 369.088c0-39.652-32.272-71.924-71.925-71.924h-81.306c-39.777 0-71.925 32.272-71.925 71.924 0 39.653 32.147 71.925 71.925 71.925h81.306c39.652 0 71.925-32.272 71.925-71.925z" fill="#FFFFFF" p-id="7036"></path><path d="M696.189 309.172c117.707 0 213.398 95.691 213.398 213.272 0 117.706-95.691 213.397-213.398 213.397-117.581 0-213.272-95.691-213.272-213.397 0-117.581 95.691-213.272 213.272-213.272z m167.742 213.272c0-92.439-75.177-167.741-167.741-167.741-92.438 0-167.74 75.302-167.74 167.741 0 92.564 75.302 167.866 167.74 167.866 92.564 0.001 167.741-75.301 167.741-167.866z" fill="#024687" p-id="7037"></path><path d="M696.189 354.703c92.564 0 167.741 75.302 167.741 167.741 0 92.564-75.177 167.866-167.741 167.866-92.438 0-167.74-75.302-167.74-167.866 0-92.439 75.302-167.741 167.74-167.741z m68.798 167.741c0-37.901-30.771-68.672-68.798-68.672-37.9 0-68.672 30.771-68.672 68.672 0 38.026 30.771 68.798 68.672 68.798 38.027 0 68.798-30.771 68.798-68.798z" fill="#FFFFFF" p-id="7038"></path><path d="M696.189 453.772c38.026 0 68.798 30.771 68.798 68.672 0 38.026-30.771 68.798-68.798 68.798-37.9 0-68.672-30.771-68.672-68.798 0.001-37.901 30.772-68.672 68.672-68.672zM316.177 297.164c39.652 0 71.925 32.272 71.925 71.924 0 39.653-32.272 71.925-71.925 71.925h-81.306c-39.777 0-71.925-32.272-71.925-71.925 0-39.652 32.147-71.924 71.925-71.924h81.306z m26.393 71.924c0-14.51-11.758-26.393-26.394-26.393H234.87c-14.635 0-26.393 11.883-26.393 26.393 0 14.51 11.758 26.394 26.393 26.394h81.306c14.636-0.001 26.394-11.884 26.394-26.394z" fill="#024687" p-id="7039"></path><path d="M316.177 342.695c14.635 0 26.394 11.883 26.394 26.393 0 14.51-11.758 26.394-26.394 26.394h-81.306c-14.635 0-26.393-11.883-26.393-26.394 0-14.51 11.758-26.393 26.393-26.393h81.306z" fill="#FFFFFF" p-id="7040"></path></svg>