<?xml version="1.0" standalone="no"?><!DOCTYPE svg PUBLIC "-//W3C//DTD SVG 1.1//EN" "http://www.w3.org/Graphics/SVG/1.1/DTD/svg11.dtd"><svg t="1542677166553" class="icon" style="" viewBox="0 0 1024 1024" version="1.1" xmlns="http://www.w3.org/2000/svg" p-id="7169" xmlns:xlink="http://www.w3.org/1999/xlink" width="200" height="200"><defs><style type="text/css"></style></defs><path d="M816.584 224.074c72.26 79.192 116.438 184.351 116.438 299.732 0 211.022-147.458 388.089-344.733 433.913l-22.56-62.155c172.132-36.189 301.612-189.169 301.612-371.758 0-86.712-29.257-166.492-78.252-230.527l4.347-8.107 22.677-42.651c3.173-5.875 3.056-12.689 0.471-18.447z" fill="#97C5EA" p-id="7170"></path><path d="M974.146 523.807c0 234.17-166.374 430.271-387.031 476.329-2.468 1.762-5.405 2.819-8.46 3.29-1.41 0.234-25.379 3.76-56.516 5.64-11.397 0.822-23.029 1.41-34.662 1.41-2.82 0-5.64-0.235-8.342-0.235a7257.8 7257.8 0 0 1-14.452-0.353c-1.528-0.117-3.055-0.235-4.583-0.235-5.287-0.353-10.34-0.705-15.157-1.175C196.439 986.858 0.809 777.833 0.809 523.807c0-268.361 218.308-486.669 486.668-486.669s486.669 218.308 486.669 486.669z m-41.124 0c0-115.381-44.179-220.54-116.438-299.732 2.585 5.757 2.702 12.572-0.471 18.447l-22.677 42.651-4.347 8.107c48.995 64.035 78.252 143.815 78.252 230.527 0 182.589-129.48 335.568-301.612 371.758l22.56 62.155c197.275-45.824 344.733-222.891 344.733-433.913z m-163.907-60.511h51.463c-8.577-47.351-26.906-91.294-52.99-129.598L608.146 633.195c-1.058 1.88-2.35 3.407-3.76 4.817-1.41 1.527-2.82 2.938-4.7 3.995l-117.848 69.91-170.487 101.047a337.539 337.539 0 0 0 112.561 43.474l46.411-118.905c2.938-7.873 10.692-13.16 18.917-13.16h0.47c8.577 0.118 16.097 5.522 19.035 13.63l42.886 118.436c135.825-26.201 243.1-133.71 268.714-269.771h-51.229a20.51 20.51 0 0 1-20.562-20.562v-82.248a20.509 20.509 0 0 1 20.561-20.562z m46.059 82.247V504.42h-25.497v41.123h25.497z m-51.229-293.975l7.755-14.687-5.758-5.522-14.217 8.46-37.599 22.324-291.507 172.836 41.946 40.066 32.781-34.309c10.222-10.692 23.499-16.685 37.364-16.685 21.619 0 42.181 13.865 50.993 34.544 8.342 19.504 4.229 40.536-10.692 56.281l-32.781 34.309 41.946 39.949 158.972-298.793 20.797-38.773z m-5.639-64.27c5.992-3.643 13.159-3.877 19.27-1.058-53.461-45.941-117.849-79.544-188.699-96.112l-22.559 62.273c52.638 11.28 101.281 33.134 143.462 63.683l7.873-4.7 40.653-24.086zM377.618 413.125L670.77 239.113c-35.483-22.912-75.667-39.244-118.553-47.586L508.743 311.49c-2.938 7.99-10.458 13.395-19.035 13.512h-0.235c-8.46 0-16.097-5.17-19.152-13.042l-47.116-120.786c-136.648 26.437-244.274 135.003-269.066 272.121h55.341c11.28 0 20.562 9.165 20.562 20.562v82.248c0 11.396-9.282 20.562-20.562 20.562h-54.636c9.165 48.525 28.552 93.526 56.163 132.418L369.276 421.82c0.353-0.705 0.94-1.41 1.41-2.115 0.705-0.94 1.41-1.88 2.232-2.703 1.411-1.527 2.938-2.819 4.7-3.877zM270.109 788.878l284.575-168.842-41.945-39.949-25.379 26.555c-10.222 10.691-23.617 16.685-37.481 16.685-21.619 0-42.063-13.982-50.876-34.662-8.342-19.387-4.347-40.418 10.692-56.163l25.379-26.554-41.946-40.066-155.683 292.33-20.562 38.892-11.28 21.149 5.757 5.404 20.797-12.337 37.952-22.442z m274.588-302.905c3.525-3.642 4.23-6.932 2.468-10.927-2.115-5.053-7.755-9.165-12.454-9.165-0.823 0-3.643 0-7.168 3.76l-47.116 49.349-0.353 0.353c-0.117 0.117-0.117 0.235-0.235 0.353l-39.831 41.711c-3.525 3.643-4.23 6.814-2.585 10.81 2.232 5.053 7.755 9.165 12.455 9.165 0.94 0 3.643 0 7.167-3.643l39.831-41.711c0.117-0.118 0.235-0.118 0.353-0.235 0.117-0.117 0.117-0.235 0.235-0.353l47.233-49.467z m-19.739-340.034l22.795-62.978c-15.745-1.998-37.364-4.112-60.276-4.112-23.969 0-44.766 2.35-61.333 6.697l23.5 60.275 15.627 40.066 23.499 60.158 21.737-60.158 14.451-39.948z m22.324 819.3l-22.911-63.33-14.57-40.184-21.032-58.278-22.794 58.396-15.51 39.831-24.322 62.155c5.875 1.41 13.277 2.702 22.442 3.643 5.052 0.47 9.987 0.939 15.157 1.175 0.352 0 0.822 0.117 1.292 0.117 5.17 0.235 10.458 0.353 15.745 0.353 1.175 0 2.232 0.118 3.407 0.118 13.865 0 27.494-0.705 39.949-1.527a736.065 736.065 0 0 0 23.147-2.469z m-162.614-7.99l24.087-62.037c-49.818-10.575-96.112-30.784-136.766-58.866l-4.7 2.82-48.291 28.552a20.164 20.164 0 0 1-10.457 2.938c50.759 40.888 110.682 70.966 176.127 86.593z m23.382-804.965l-24.087-61.686C188.097 137.362 41.932 313.841 41.932 523.807c0 115.733 44.414 221.128 117.026 300.438-0.353-3.995 0.235-7.99 2.232-11.75l25.849-48.525 2.585-4.817c-51.346-64.74-82.012-146.518-82.012-235.345 0-182.238 129.011-334.865 300.438-371.524zM188.92 545.543V504.42h-25.497v41.123h25.497z" fill="#97C5EA" p-id="7171"></path><path d="M789.677 504.42h25.497v41.123h-25.497zM777.575 186.24c-6.11-2.82-13.277-2.585-19.27 1.058l-40.653 24.087-7.873 4.7c-42.181-30.549-90.824-52.403-143.462-63.683l22.559-62.273c70.851 16.567 135.238 50.17 188.699 96.111zM751.726 239.819l14.217-8.46 5.758 5.522-7.755 14.687-20.797 38.773-158.972 298.794-41.946-39.949 32.781-34.309c14.922-15.745 19.034-36.776 10.692-56.281-8.813-20.679-29.374-34.544-50.993-34.544-13.865 0-27.142 5.993-37.364 16.685l-32.781 34.309-41.946-40.066 291.508-172.836 37.598-22.325zM554.685 620.036L270.109 788.878l-37.951 22.441-20.797 12.337-5.757-5.404 11.28-21.149 20.562-38.892 155.683-292.33 41.946 40.066-25.379 26.554c-15.04 15.745-19.035 36.776-10.692 56.163 8.813 20.68 29.257 34.662 50.876 34.662 13.865 0 27.259-5.993 37.481-16.685l25.379-26.555 41.945 39.95zM547.753 82.961l-22.795 62.978-14.452 39.948-21.737 60.158-23.499-60.158-15.627-40.066-23.5-60.275c16.567-4.348 37.364-6.697 61.333-6.697 22.913 0 44.532 2.115 60.277 4.112zM524.371 901.909l22.911 63.33a736.962 736.962 0 0 1-23.146 2.468c-12.455 0.822-26.084 1.527-39.949 1.527-1.175 0-2.232-0.118-3.407-0.118-5.287 0-10.575-0.117-15.745-0.353-0.47 0-0.94-0.117-1.292-0.117-5.17-0.235-10.105-0.705-15.157-1.175-9.165-0.94-16.567-2.232-22.442-3.643l24.322-62.155 15.51-39.831 22.794-58.396 21.032 58.278 14.569 40.185z" fill="#97C5EA" p-id="7172"></path><path d="M489.709 325.003c8.577-0.118 16.097-5.522 19.035-13.512l43.474-119.963c42.886 8.342 83.069 24.674 118.553 47.586L377.618 413.125c-1.762 1.057-3.29 2.35-4.7 3.877-0.822 0.823-1.527 1.763-2.232 2.703-0.47 0.705-1.058 1.41-1.41 2.115L211.009 719.085c-27.611-38.892-46.998-83.893-56.163-132.418h54.636c11.28 0 20.562-9.165 20.562-20.562v-82.248c0-11.397-9.282-20.562-20.562-20.562h-55.341c24.792-137.118 132.418-245.684 269.066-272.121l47.116 120.786c3.055 7.873 10.692 13.042 19.152 13.042l0.234 0.001zM489.709 724.372h-0.47l-7.402-12.454 117.848-69.91c1.88-1.058 3.29-2.468 4.7-3.995 1.41-1.41 2.702-2.938 3.76-4.817l159.442-299.498c26.084 38.304 44.413 82.248 52.99 129.598h-51.463a20.51 20.51 0 0 0-20.562 20.562v82.248a20.51 20.51 0 0 0 20.562 20.562h51.229c-25.614 136.06-132.888 243.568-268.713 269.77l-42.886-118.436c-2.937-8.107-10.457-13.512-19.035-13.63z" fill="#97C5EA" p-id="7173"></path><path d="M481.837 711.918l7.402 12.454c-8.225 0-15.979 5.287-18.917 13.16l-46.411 118.905a337.539 337.539 0 0 1-112.561-43.474l170.487-101.045zM527.543 469.641c3.525-3.76 6.345-3.76 7.168-3.76 4.699 0 10.339 4.112 12.454 9.165 1.763 3.995 1.058 7.285-2.468 10.927l-47.233 49.466c-0.118 0.117-0.118 0.235-0.235 0.353-0.118 0.117-0.235 0.117-0.353 0.235l-39.831 41.711c-3.525 3.643-6.228 3.643-7.167 3.643-4.7 0-10.222-4.112-12.455-9.165-1.645-3.995-0.94-7.167 2.585-10.81l39.831-41.711c0.118-0.117 0.118-0.235 0.235-0.353l0.353-0.353 47.116-49.348zM408.755 895.212l-24.087 62.037c-65.445-15.627-125.368-45.705-176.126-86.594 3.525 0 7.167-0.94 10.457-2.938l48.291-28.552 4.7-2.82c40.653 28.083 86.947 48.292 136.765 58.867zM383.963 90.599l24.087 61.686C236.623 188.943 107.612 341.57 107.612 523.807c0 88.827 30.667 170.604 82.012 235.345l-2.585 4.817-25.849 48.525c-1.997 3.76-2.585 7.755-2.232 11.75C86.346 744.935 41.932 639.54 41.932 523.807c0-209.966 146.165-386.445 342.031-433.208z" fill="#97C5EA" p-id="7174"></path><path d="M163.423 504.42h25.497v41.123h-25.497z" fill="#97C5EA" p-id="7175"></path><path d="M863.582 200.575c72.26 79.192 116.438 184.352 116.438 299.732 0 211.023-147.457 388.089-344.733 433.913l-22.56-62.155C784.859 835.876 914.34 682.896 914.34 500.307c0-86.712-29.256-166.492-78.252-230.527l4.348-8.107 22.677-42.651c3.171-5.875 3.054-12.69 0.469-18.447z" fill="#FFFFFF" p-id="7176"></path><path d="M1021.145 500.307c0 234.169-166.375 430.271-387.032 476.33-2.468 1.762-5.405 2.819-8.46 3.289-1.41 0.235-25.379 3.761-56.516 5.641-11.396 0.822-23.029 1.409-34.661 1.409-2.82 0-5.64-0.234-8.342-0.234a8080.65 8080.65 0 0 1-14.453-0.353c-1.527-0.118-3.055-0.235-4.582-0.235-5.288-0.353-10.34-0.705-15.157-1.175-248.504-21.62-444.135-230.645-444.135-484.672 0-268.361 218.308-486.668 486.668-486.668 268.362 0 486.67 218.307 486.67 486.668z m-41.124 0c0-115.381-44.179-220.54-116.438-299.732 2.585 5.757 2.702 12.572-0.47 18.447l-22.677 42.651-4.348 8.107c48.996 64.035 78.252 143.815 78.252 230.527 0 182.589-129.48 335.569-301.612 371.757l22.56 62.155c197.275-45.823 344.733-222.889 344.733-433.912z m-163.908-60.51h51.464c-8.577-47.351-26.907-91.294-52.991-129.598L655.144 609.696c-1.057 1.88-2.35 3.407-3.76 4.817-1.409 1.527-2.819 2.938-4.699 3.995l-117.849 69.91-170.487 101.047a337.539 337.539 0 0 0 112.561 43.474l46.411-118.906c2.938-7.872 10.692-13.159 18.917-13.159h0.47c8.577 0.117 16.097 5.522 19.034 13.63l42.886 118.436c135.826-26.201 243.1-133.71 268.714-269.771h-51.229a20.51 20.51 0 0 1-20.562-20.563v-82.247a20.51 20.51 0 0 1 20.562-20.562z m46.059 82.247V480.92h-25.496v41.124h25.496z m-51.229-293.975l7.755-14.687-5.757-5.522-14.217 8.459-37.6 22.324L469.618 411.48l41.946 40.066 32.782-34.309c10.222-10.692 23.499-16.685 37.363-16.685 21.619 0 42.181 13.864 50.993 34.544 8.343 19.504 4.229 40.536-10.692 56.28l-32.781 34.309 41.946 39.948 158.972-298.792 20.796-38.772z m-5.639-64.27c5.992-3.643 13.16-3.877 19.27-1.058-53.462-45.941-117.849-79.545-188.699-96.112l-22.56 62.273c52.639 11.28 101.281 33.134 143.463 63.683l7.872-4.7 40.654-24.086zM424.617 389.626L717.77 215.614c-35.484-22.912-75.668-39.244-118.554-47.586l-43.474 119.964c-2.938 7.99-10.457 13.395-19.034 13.512h-0.235c-8.459 0-16.097-5.17-19.151-13.042l-47.116-120.786C333.558 194.113 225.932 302.679 201.14 439.797h55.341c11.28 0 20.562 9.165 20.562 20.562v82.247c0 11.397-9.282 20.563-20.562 20.563h-54.636c9.165 48.525 28.552 93.526 56.163 132.418l158.267-297.265c0.353-0.705 0.94-1.41 1.41-2.115 0.705-0.94 1.41-1.88 2.232-2.703 1.41-1.528 2.937-2.82 4.7-3.878zM317.108 765.378l284.576-168.842-41.946-39.948-25.379 26.554c-10.223 10.692-23.617 16.685-37.481 16.685-21.62 0-42.063-13.981-50.876-34.661-8.342-19.387-4.347-40.419 10.692-56.163l25.379-26.554-41.946-40.066-155.683 292.33-20.562 38.892-11.28 21.148 5.757 5.405 20.797-12.337 37.952-22.443z m274.588-302.904c3.524-3.643 4.229-6.932 2.467-10.927-2.114-5.052-7.754-9.165-12.454-9.165-0.822 0-3.643 0-7.167 3.76l-47.116 49.349-0.353 0.352c-0.117 0.118-0.117 0.235-0.235 0.353l-39.831 41.711c-3.525 3.643-4.23 6.814-2.585 10.81 2.232 5.052 7.754 9.165 12.455 9.165 0.94 0 3.642 0 7.167-3.643l39.831-41.711c0.118-0.118 0.235-0.118 0.353-0.235 0.118-0.118 0.118-0.235 0.235-0.353l47.233-49.466zM571.957 122.44l22.794-62.978c-15.744-1.998-37.363-4.113-60.275-4.113-23.969 0-44.766 2.35-61.333 6.697l23.499 60.276 15.627 40.066 23.499 60.158 21.737-60.158 14.452-39.948z m22.324 819.3l-22.912-63.331-14.569-40.183-21.032-58.277-22.794 58.396-15.509 39.831-24.322 62.155c5.875 1.41 13.277 2.702 22.442 3.643 5.052 0.47 9.987 0.939 15.157 1.175 0.353 0 0.823 0.117 1.293 0.117 5.17 0.235 10.457 0.353 15.744 0.353 1.175 0 2.232 0.117 3.407 0.117 13.864 0 27.494-0.704 39.949-1.527a739.959 739.959 0 0 0 23.146-2.469z m-162.614-7.99l24.087-62.038c-49.818-10.574-96.112-30.783-136.766-58.865l-4.7 2.82-48.291 28.551a20.155 20.155 0 0 1-10.457 2.938c50.758 40.888 110.681 70.967 176.127 86.594z m23.381-804.965L430.961 67.1c-195.865 46.763-342.03 223.242-342.03 433.207 0 115.734 44.414 221.127 117.026 300.438-0.353-3.995 0.235-7.99 2.232-11.75l25.849-48.525 2.585-4.817c-51.346-64.741-82.012-146.518-82.012-235.345 0-182.237 129.011-334.864 300.437-371.523z m-219.13 393.259V480.92h-25.497v41.124h25.497z" fill="#024687" p-id="7177"></path><path d="M867.577 439.797h-51.464a20.51 20.51 0 0 0-20.562 20.562v82.247a20.51 20.51 0 0 0 20.562 20.563h51.229C841.728 699.23 734.454 806.738 598.628 832.94l-42.886-118.436c-2.938-8.107-10.457-13.513-19.034-13.63h-0.47l-7.402-12.454 117.849-69.91c1.88-1.058 3.29-2.468 4.699-3.995 1.41-1.41 2.703-2.938 3.76-4.817L814.586 310.2c26.084 38.302 44.414 82.246 52.991 129.597z" fill="#FFFFFF" p-id="7178"></path><path d="M836.676 480.92h25.496v41.124h-25.496zM818.698 213.382l-7.755 14.687-20.797 38.774-158.971 298.792-41.946-39.948 32.781-34.309c14.922-15.744 19.035-36.776 10.692-56.28-8.813-20.68-29.374-34.544-50.993-34.544-13.864 0-27.142 5.992-37.363 16.685l-32.782 34.309-41.946-40.066 291.507-172.837 37.6-22.324 14.217-8.459 5.756 5.52zM824.573 162.741c-6.109-2.82-13.277-2.585-19.27 1.058l-40.653 24.086-7.872 4.7c-42.182-30.549-90.824-52.403-143.463-63.683l22.56-62.273c70.85 16.567 135.237 50.171 188.698 96.112z" fill="#FFFFFF" p-id="7179"></path><path d="M717.77 215.614L424.617 389.626c-1.762 1.058-3.29 2.35-4.7 3.877-0.823 0.822-1.527 1.762-2.232 2.703-0.47 0.705-1.058 1.41-1.41 2.115L258.007 695.586c-27.611-38.892-46.999-83.893-56.163-132.418h54.636c11.28 0 20.562-9.165 20.562-20.563v-82.247c0-11.397-9.282-20.562-20.562-20.562h-55.341c24.792-137.118 132.418-245.684 269.066-272.121l47.116 120.786c3.055 7.872 10.692 13.042 19.151 13.042h0.235c8.577-0.117 16.097-5.522 19.034-13.512l43.474-119.964c42.887 8.344 83.07 24.676 118.555 47.587z" fill="#FFFFFF" p-id="7180"></path><path d="M601.684 596.536L317.108 765.378l-37.951 22.442-20.797 12.337-5.757-5.405 11.28-21.148 20.562-38.892 155.683-292.33 41.946 40.066-25.379 26.554c-15.04 15.744-19.035 36.776-10.692 56.163 8.813 20.68 29.256 34.661 50.876 34.661 13.864 0 27.259-5.992 37.481-16.685l25.379-26.554 41.945 39.949z" fill="#FFFFFF" p-id="7181"></path><path d="M594.163 451.546c1.763 3.995 1.058 7.285-2.467 10.927l-47.233 49.466c-0.117 0.118-0.117 0.235-0.235 0.353-0.117 0.117-0.234 0.117-0.353 0.235l-39.831 41.711c-3.525 3.643-6.227 3.643-7.167 3.643-4.7 0-10.222-4.113-12.455-9.165-1.645-3.995-0.94-7.167 2.585-10.81l39.831-41.711c0.118-0.117 0.118-0.235 0.235-0.353l0.353-0.352 47.116-49.349c3.524-3.76 6.345-3.76 7.167-3.76 4.7 0.001 10.34 4.113 12.454 9.165zM594.751 59.462l-22.794 62.978-14.452 39.949-21.737 60.158-23.499-60.158-15.627-40.066-23.499-60.276c16.567-4.347 37.364-6.697 61.333-6.697 22.912 0 44.531 2.115 60.275 4.112zM571.369 878.409l22.912 63.331a737.605 737.605 0 0 1-23.146 2.467c-12.455 0.823-26.085 1.527-39.949 1.527-1.175 0-2.232-0.117-3.407-0.117-5.287 0-10.574-0.117-15.744-0.353-0.47 0-0.94-0.117-1.293-0.117-5.17-0.235-10.104-0.705-15.157-1.175-9.165-0.94-16.567-2.232-22.442-3.643l24.322-62.155 15.509-39.831 22.794-58.396 21.032 58.277 14.569 40.185zM528.836 688.419l7.402 12.454c-8.225 0-15.979 5.287-18.917 13.159L470.91 832.938a337.539 337.539 0 0 1-112.561-43.474l170.487-101.045zM455.753 871.712l-24.087 62.038c-65.445-15.627-125.368-45.706-176.126-86.595 3.525 0 7.167-0.939 10.457-2.938l48.291-28.551 4.7-2.82c40.654 28.083 86.947 48.292 136.765 58.866zM430.961 67.1l24.087 61.685C283.621 165.444 154.61 318.071 154.61 500.307c0 88.828 30.667 170.604 82.012 235.345l-2.585 4.817-25.849 48.525c-1.998 3.76-2.585 7.755-2.232 11.75-72.612-79.309-117.025-184.703-117.025-300.437 0-209.965 146.165-386.444 342.03-433.207z" fill="#FFFFFF" p-id="7182"></path><path d="M210.421 480.92h25.497v41.124h-25.497z" fill="#FFFFFF" p-id="7183"></path></svg>